TITLE ""
FILE "LR_black_phrase_S06.mp3" MP3
  TRACK 01 AUDIO
    TITLE "LR_black_phrase_S06_001"
    INDEX 01 00:00:00
  TRACK 02 AUDIO
    TITLE "LR_black_phrase_S06_002"
    INDEX 01 00:00:14
  TRACK 03 AUDIO
    TITLE "LR_black_phrase_S06_003"
    INDEX 01 00:01:55
  TRACK 04 AUDIO
    TITLE "LR_black_phrase_S06_004"
    INDEX 01 00:02:19
  TRACK 05 AUDIO
    TITLE "LR_black_phrase_S06_005"
    INDEX 01 00:05:25
  TRACK 06 AUDIO
    TITLE "LR_black_phrase_S06_006"
    INDEX 01 00:06:25
  TRACK 07 AUDIO
    TITLE "LR_black_phrase_S06_007"
    INDEX 01 00:08:45
  TRACK 08 AUDIO
    TITLE "LR_black_phrase_S06_008"
    INDEX 01 00:09:09
  TRACK 09 AUDIO
    TITLE "LR_black_phrase_S06_009"
    INDEX 01 00:11:24
  TRACK 10 AUDIO
    TITLE "LR_black_phrase_S06_010"
    INDEX 01 00:11:55
  TRACK 11 AUDIO
    TITLE "LR_black_phrase_S06_011"
    INDEX 01 00:13:68
  TRACK 12 AUDIO
    TITLE "LR_black_phrase_S06_012"
    INDEX 01 00:15:00
  TRACK 13 AUDIO
    TITLE "LR_black_phrase_S06_013"
    INDEX 01 00:16:21
  TRACK 14 AUDIO
    TITLE "LR_black_phrase_S06_014"
    INDEX 01 00:16:64
  TRACK 15 AUDIO
    TITLE "LR_black_phrase_S06_015"
    INDEX 01 00:20:33
  TRACK 16 AUDIO
    TITLE "LR_black_phrase_S06_016"
    INDEX 01 00:21:32
  TRACK 17 AUDIO
    TITLE "LR_black_phrase_S06_017"
    INDEX 01 00:23:64
  TRACK 18 AUDIO
    TITLE "LR_black_phrase_S06_018"
    INDEX 01 00:24:28
  TRACK 19 AUDIO
    TITLE "LR_black_phrase_S06_019"
    INDEX 01 00:26:12
  TRACK 20 AUDIO
    TITLE "LR_black_phrase_S06_020"
    INDEX 01 00:26:39
  TRACK 21 AUDIO
    TITLE "LR_black_phrase_S06_021"
    INDEX 01 00:28:20
  TRACK 22 AUDIO
    TITLE "LR_black_phrase_S06_022"
    INDEX 01 00:29:20
  TRACK 23 AUDIO
    TITLE "LR_black_phrase_S06_023"
    INDEX 01 00:30:35
  TRACK 24 AUDIO
    TITLE "LR_black_phrase_S06_024"
    INDEX 01 00:30:70
  TRACK 25 AUDIO
    TITLE "LR_black_phrase_S06_025"
    INDEX 01 00:33:20
  TRACK 26 AUDIO
    TITLE "LR_black_phrase_S06_026"
    INDEX 01 00:34:17
  TRACK 27 AUDIO
    TITLE "LR_black_phrase_S06_027"
    INDEX 01 00:36:22
  TRACK 28 AUDIO
    TITLE "LR_black_phrase_S06_028"
    INDEX 01 00:36:57
  TRACK 29 AUDIO
    TITLE "LR_black_phrase_S06_029"
    INDEX 01 00:38:64
  TRACK 30 AUDIO
    TITLE "LR_black_phrase_S06_030"
    INDEX 01 00:39:10
  TRACK 31 AUDIO
    TITLE "LR_black_phrase_S06_031"
    INDEX 01 00:41:17
  TRACK 32 AUDIO
    TITLE "LR_black_phrase_S06_032"
    INDEX 01 00:42:15
  TRACK 33 AUDIO
    TITLE "LR_black_phrase_S06_033"
    INDEX 01 00:43:36
  TRACK 34 AUDIO
    TITLE "LR_black_phrase_S06_034"
    INDEX 01 00:43:73
  TRACK 35 AUDIO
    TITLE "LR_black_phrase_S06_035"
    INDEX 01 00:46:57
  TRACK 36 AUDIO
    TITLE "LR_black_phrase_S06_036"
    INDEX 01 00:47:57
  TRACK 37 AUDIO
    TITLE "LR_black_phrase_S06_037"
    INDEX 01 00:49:50
  TRACK 38 AUDIO
    TITLE "LR_black_phrase_S06_038"
    INDEX 01 00:50:08
  TRACK 39 AUDIO
    TITLE "LR_black_phrase_S06_039"
    INDEX 01 00:51:70
  TRACK 40 AUDIO
    TITLE "LR_black_phrase_S06_040"
    INDEX 01 00:52:17
  TRACK 41 AUDIO
    TITLE "LR_black_phrase_S06_041"
    INDEX 01 00:54:04
  TRACK 42 AUDIO
    TITLE "LR_black_phrase_S06_042"
    INDEX 01 00:55:07
  TRACK 43 AUDIO
    TITLE "LR_black_phrase_S06_043"
    INDEX 01 00:56:25
  TRACK 44 AUDIO
    TITLE "LR_black_phrase_S06_044"
    INDEX 01 00:56:62
  TRACK 45 AUDIO
    TITLE "LR_black_phrase_S06_045"
    INDEX 01 00:58:08
  TRACK 46 AUDIO
    TITLE "LR_black_phrase_S06_046"
    INDEX 01 00:59:07
  TRACK 47 AUDIO
    TITLE "LR_black_phrase_S06_047"
    INDEX 01 01:01:12
  TRACK 48 AUDIO
    TITLE "LR_black_phrase_S06_048"
    INDEX 01 01:01:49
  TRACK 49 AUDIO
    TITLE "LR_black_phrase_S06_049"
    INDEX 01 01:04:02
  TRACK 50 AUDIO
    TITLE "LR_black_phrase_S06_050"
    INDEX 01 01:04:32
  TRACK 51 AUDIO
    TITLE "LR_black_phrase_S06_051"
    INDEX 01 01:06:60
  TRACK 52 AUDIO
    TITLE "LR_black_phrase_S06_052"
    INDEX 01 01:07:65
  TRACK 53 AUDIO
    TITLE "LR_black_phrase_S06_053"
    INDEX 01 01:09:10
  TRACK 54 AUDIO
    TITLE "LR_black_phrase_S06_054"
    INDEX 01 01:09:47
  TRACK 55 AUDIO
    TITLE "LR_black_phrase_S06_055"
    INDEX 01 01:12:22
  TRACK 56 AUDIO
    TITLE "LR_black_phrase_S06_056"
    INDEX 01 01:13:21
  TRACK 57 AUDIO
    TITLE "LR_black_phrase_S06_057"
    INDEX 01 01:15:49
  TRACK 58 AUDIO
    TITLE "LR_black_phrase_S06_058"
    INDEX 01 01:16:15
  TRACK 59 AUDIO
    TITLE "LR_black_phrase_S06_059"
    INDEX 01 01:18:61
  TRACK 60 AUDIO
    TITLE "LR_black_phrase_S06_060"
    INDEX 01 01:19:18
  TRACK 61 AUDIO
    TITLE "LR_black_phrase_S06_061"
    INDEX 01 01:21:64
  TRACK 62 AUDIO
    TITLE "LR_black_phrase_S06_062"
    INDEX 01 01:22:65
  TRACK 63 AUDIO
    TITLE "LR_black_phrase_S06_063"
    INDEX 01 01:23:74
  TRACK 64 AUDIO
    TITLE "LR_black_phrase_S06_064"
    INDEX 01 01:24:37
  TRACK 65 AUDIO
    TITLE "LR_black_phrase_S06_065"
    INDEX 01 01:27:39
  TRACK 66 AUDIO
    TITLE "LR_black_phrase_S06_066"
    INDEX 01 01:28:38
  TRACK 67 AUDIO
    TITLE "LR_black_phrase_S06_067"
    INDEX 01 01:30:51
  TRACK 68 AUDIO
    TITLE "LR_black_phrase_S06_068"
    INDEX 01 01:31:09
  TRACK 69 AUDIO
    TITLE "LR_black_phrase_S06_069"
    INDEX 01 01:32:65
  TRACK 70 AUDIO
    TITLE "LR_black_phrase_S06_070"
    INDEX 01 01:33:10
  TRACK 71 AUDIO
    TITLE "LR_black_phrase_S06_071"
    INDEX 01 01:34:64
  TRACK 72 AUDIO
    TITLE "LR_black_phrase_S06_072"
    INDEX 01 01:35:60
  TRACK 73 AUDIO
    TITLE "LR_black_phrase_S06_073"
    INDEX 01 01:37:12
  TRACK 74 AUDIO
    TITLE "LR_black_phrase_S06_074"
    INDEX 01 01:37:51
  TRACK 75 AUDIO
    TITLE "LR_black_phrase_S06_075"
    INDEX 01 01:40:14
  TRACK 76 AUDIO
    TITLE "LR_black_phrase_S06_076"
    INDEX 01 01:41:13
  TRACK 77 AUDIO
    TITLE "LR_black_phrase_S06_077"
    INDEX 01 01:43:53
  TRACK 78 AUDIO
    TITLE "LR_black_phrase_S06_078"
    INDEX 01 01:44:12
  TRACK 79 AUDIO
    TITLE "LR_black_phrase_S06_079"
    INDEX 01 01:46:50
  TRACK 80 AUDIO
    TITLE "LR_black_phrase_S06_080"
    INDEX 01 01:46:71
  TRACK 81 AUDIO
    TITLE "LR_black_phrase_S06_081"
    INDEX 01 01:49:36
  TRACK 82 AUDIO
    TITLE "LR_black_phrase_S06_082"
    INDEX 01 01:50:38
  TRACK 83 AUDIO
    TITLE "LR_black_phrase_S06_083"
    INDEX 01 01:51:49
  TRACK 84 AUDIO
    TITLE "LR_black_phrase_S06_084"
    INDEX 01 01:52:15
  TRACK 85 AUDIO
    TITLE "LR_black_phrase_S06_085"
    INDEX 01 01:54:42
  TRACK 86 AUDIO
    TITLE "LR_black_phrase_S06_086"
    INDEX 01 01:55:43
  TRACK 87 AUDIO
    TITLE "LR_black_phrase_S06_087"
    INDEX 01 01:58:08
  TRACK 88 AUDIO
    TITLE "LR_black_phrase_S06_088"
    INDEX 01 01:58:51
  TRACK 89 AUDIO
    TITLE "LR_black_phrase_S06_089"
    INDEX 01 02:01:20
  TRACK 90 AUDIO
    TITLE "LR_black_phrase_S06_090"
    INDEX 01 02:01:49
  TRACK 91 AUDIO
    TITLE "LR_black_phrase_S06_091"
    INDEX 01 02:04:20
  TRACK 92 AUDIO
    TITLE "LR_black_phrase_S06_092"
    INDEX 01 02:05:24
  TRACK 93 AUDIO
    TITLE "LR_black_phrase_S06_093"
    INDEX 01 02:06:43
  TRACK 94 AUDIO
    TITLE "LR_black_phrase_S06_094"
    INDEX 01 02:07:09
  TRACK 95 AUDIO
    TITLE "LR_black_phrase_S06_095"
    INDEX 01 02:09:51
  TRACK 96 AUDIO
    TITLE "LR_black_phrase_S06_096"
    INDEX 01 02:10:50
  TRACK 97 AUDIO
    TITLE "LR_black_phrase_S06_097"
    INDEX 01 02:12:67
  TRACK 98 AUDIO
    TITLE "LR_black_phrase_S06_098"
    INDEX 01 02:13:33
  TRACK 99 AUDIO
    TITLE "LR_black_phrase_S06_099"
    INDEX 01 02:15:16
  TRACK 100 AUDIO
    TITLE "LR_black_phrase_S06_100"
    INDEX 01 02:15:44
  TRACK 101 AUDIO
    TITLE "LR_black_phrase_S06_101"
    INDEX 01 02:17:29
  TRACK 102 AUDIO
    TITLE "LR_black_phrase_S06_102"
    INDEX 01 02:18:26
  TRACK 103 AUDIO
    TITLE "LR_black_phrase_S06_103"
    INDEX 01 02:19:43
  TRACK 104 AUDIO
    TITLE "LR_black_phrase_S06_104"
    INDEX 01 02:20:06
  TRACK 105 AUDIO
    TITLE "LR_black_phrase_S06_105"
    INDEX 01 02:22:28
  TRACK 106 AUDIO
    TITLE "LR_black_phrase_S06_106"
    INDEX 01 02:23:29
  TRACK 107 AUDIO
    TITLE "LR_black_phrase_S06_107"
    INDEX 01 02:25:38
  TRACK 108 AUDIO
    TITLE "LR_black_phrase_S06_108"
    INDEX 01 02:25:71
  TRACK 109 AUDIO
    TITLE "LR_black_phrase_S06_109"
    INDEX 01 02:28:40
  TRACK 110 AUDIO
    TITLE "LR_black_phrase_S06_110"
    INDEX 01 02:28:64
  TRACK 111 AUDIO
    TITLE "LR_black_phrase_S06_111"
    INDEX 01 02:31:33
  TRACK 112 AUDIO
    TITLE "LR_black_phrase_S06_112"
    INDEX 01 02:32:32
  TRACK 113 AUDIO
    TITLE "LR_black_phrase_S06_113"
    INDEX 01 02:33:45
  TRACK 114 AUDIO
    TITLE "LR_black_phrase_S06_114"
    INDEX 01 02:34:02
  TRACK 115 AUDIO
    TITLE "LR_black_phrase_S06_115"
    INDEX 01 02:36:34
  TRACK 116 AUDIO
    TITLE "LR_black_phrase_S06_116"
    INDEX 01 02:37:30
  TRACK 117 AUDIO
    TITLE "LR_black_phrase_S06_117"
    INDEX 01 02:39:58
  TRACK 118 AUDIO
    TITLE "LR_black_phrase_S06_118"
    INDEX 01 02:40:16
  TRACK 119 AUDIO
    TITLE "LR_black_phrase_S06_119"
    INDEX 01 02:42:52
  TRACK 120 AUDIO
    TITLE "LR_black_phrase_S06_120"
    INDEX 01 02:42:72
  TRACK 121 AUDIO
    TITLE "LR_black_phrase_S06_121"
    INDEX 01 02:45:33
  TRACK 122 AUDIO
    TITLE "LR_black_phrase_S06_122"
    INDEX 01 02:46:34
  TRACK 123 AUDIO
    TITLE "LR_black_phrase_S06_123"
    INDEX 01 02:47:59
  TRACK 124 AUDIO
    TITLE "LR_black_phrase_S06_124"
    INDEX 01 02:48:18
  TRACK 125 AUDIO
    TITLE "LR_black_phrase_S06_125"
    INDEX 01 02:51:28
  TRACK 126 AUDIO
    TITLE "LR_black_phrase_S06_126"
    INDEX 01 02:52:25
  TRACK 127 AUDIO
    TITLE "LR_black_phrase_S06_127"
    INDEX 01 02:54:01
  TRACK 128 AUDIO
    TITLE "LR_black_phrase_S06_128"
    INDEX 01 02:54:40
  TRACK 129 AUDIO
    TITLE "LR_black_phrase_S06_129"
    INDEX 01 02:56:62
  TRACK 130 AUDIO
    TITLE "LR_black_phrase_S06_130"
    INDEX 01 02:57:17
  TRACK 131 AUDIO
    TITLE "LR_black_phrase_S06_131"
    INDEX 01 02:59:39
  TRACK 132 AUDIO
    TITLE "LR_black_phrase_S06_132"
    INDEX 01 03:00:44
  TRACK 133 AUDIO
    TITLE "LR_black_phrase_S06_133"
    INDEX 01 03:01:54
  TRACK 134 AUDIO
    TITLE "LR_black_phrase_S06_134"
    INDEX 01 03:02:18
  TRACK 135 AUDIO
    TITLE "LR_black_phrase_S06_135"
    INDEX 01 03:04:54
  TRACK 136 AUDIO
    TITLE "LR_black_phrase_S06_136"
    INDEX 01 03:05:55
  TRACK 137 AUDIO
    TITLE "LR_black_phrase_S06_137"
    INDEX 01 03:07:42
  TRACK 138 AUDIO
    TITLE "LR_black_phrase_S06_138"
    INDEX 01 03:08:12
  TRACK 139 AUDIO
    TITLE "LR_black_phrase_S06_139"
    INDEX 01 03:10:15
  TRACK 140 AUDIO
    TITLE "LR_black_phrase_S06_140"
    INDEX 01 03:10:45
  TRACK 141 AUDIO
    TITLE "LR_black_phrase_S06_141"
    INDEX 01 03:12:48
  TRACK 142 AUDIO
    TITLE "LR_black_phrase_S06_142"
    INDEX 01 03:13:49
  TRACK 143 AUDIO
    TITLE "LR_black_phrase_S06_143"
    INDEX 01 03:14:72
  TRACK 144 AUDIO
    TITLE "LR_black_phrase_S06_144"
    INDEX 01 03:15:30
  TRACK 145 AUDIO
    TITLE "LR_black_phrase_S06_145"
    INDEX 01 03:18:11
  TRACK 146 AUDIO
    TITLE "LR_black_phrase_S06_146"
    INDEX 01 03:19:08
  TRACK 147 AUDIO
    TITLE "LR_black_phrase_S06_147"
    INDEX 01 03:21:45
  TRACK 148 AUDIO
    TITLE "LR_black_phrase_S06_148"
    INDEX 01 03:22:09
  TRACK 149 AUDIO
    TITLE "LR_black_phrase_S06_149"
    INDEX 01 03:24:27
  TRACK 150 AUDIO
    TITLE "LR_black_phrase_S06_150"
    INDEX 01 03:24:53
  TRACK 151 AUDIO
    TITLE "LR_black_phrase_S06_151"
    INDEX 01 03:26:69
  TRACK 152 AUDIO
    TITLE "LR_black_phrase_S06_152"
    INDEX 01 03:27:65
  TRACK 153 AUDIO
    TITLE "LR_black_phrase_S06_153"
    INDEX 01 03:29:15
  TRACK 154 AUDIO
    TITLE "LR_black_phrase_S06_154"
    INDEX 01 03:29:48
  TRACK 155 AUDIO
    TITLE "LR_black_phrase_S06_155"
    INDEX 01 03:31:68
  TRACK 156 AUDIO
    TITLE "LR_black_phrase_S06_156"
    INDEX 01 03:32:68
  TRACK 157 AUDIO
    TITLE "LR_black_phrase_S06_157"
    INDEX 01 03:34:47
  TRACK 158 AUDIO
    TITLE "LR_black_phrase_S06_158"
    INDEX 01 03:35:05
  TRACK 159 AUDIO
    TITLE "LR_black_phrase_S06_159"
    INDEX 01 03:37:22
  TRACK 160 AUDIO
    TITLE "LR_black_phrase_S06_160"
    INDEX 01 03:37:42
  TRACK 161 AUDIO
    TITLE "LR_black_phrase_S06_161"
    INDEX 01 03:39:60
  TRACK 162 AUDIO
    TITLE "LR_black_phrase_S06_162"
    INDEX 01 03:40:60
  TRACK 163 AUDIO
    TITLE "LR_black_phrase_S06_163"
    INDEX 01 03:42:02
  TRACK 164 AUDIO
    TITLE "LR_black_phrase_S06_164"
    INDEX 01 03:42:39
  TRACK 165 AUDIO
    TITLE "LR_black_phrase_S06_165"
    INDEX 01 03:45:49
  TRACK 166 AUDIO
    TITLE "LR_black_phrase_S06_166"
    INDEX 01 03:46:46
  TRACK 167 AUDIO
    TITLE "LR_black_phrase_S06_167"
    INDEX 01 03:49:51
  TRACK 168 AUDIO
    TITLE "LR_black_phrase_S06_168"
    INDEX 01 03:50:15
  TRACK 169 AUDIO
    TITLE "LR_black_phrase_S06_169"
    INDEX 01 03:52:43
  TRACK 170 AUDIO
    TITLE "LR_black_phrase_S06_170"
    INDEX 01 03:52:74
  TRACK 171 AUDIO
    TITLE "LR_black_phrase_S06_171"
    INDEX 01 03:55:30
  TRACK 172 AUDIO
    TITLE "LR_black_phrase_S06_172"
    INDEX 01 03:56:35
  TRACK 173 AUDIO
    TITLE "LR_black_phrase_S06_173"
    INDEX 01 03:57:66
  TRACK 174 AUDIO
    TITLE "LR_black_phrase_S06_174"
    INDEX 01 03:58:30
  TRACK 175 AUDIO
    TITLE "LR_black_phrase_S06_175"
    INDEX 01 03:59:43
  TRACK 176 AUDIO
    TITLE "LR_black_phrase_S06_176"
    INDEX 01 04:00:43
  TRACK 177 AUDIO
    TITLE "LR_black_phrase_S06_177"
    INDEX 01 04:02:61
  TRACK 178 AUDIO
    TITLE "LR_black_phrase_S06_178"
    INDEX 01 04:03:27
  TRACK 179 AUDIO
    TITLE "LR_black_phrase_S06_179"
    INDEX 01 04:06:04
  TRACK 180 AUDIO
    TITLE "LR_black_phrase_S06_180"
    INDEX 01 04:06:35
  TRACK 181 AUDIO
    TITLE "LR_black_phrase_S06_181"
    INDEX 01 04:09:12
  TRACK 182 AUDIO
    TITLE "LR_black_phrase_S06_182"
    INDEX 01 04:10:14
  TRACK 183 AUDIO
    TITLE "LR_black_phrase_S06_183"
    INDEX 01 04:11:39
  TRACK 184 AUDIO
    TITLE "LR_black_phrase_S06_184"
    INDEX 01 04:11:74
  TRACK 185 AUDIO
    TITLE "LR_black_phrase_S06_185"
    INDEX 01 04:15:32
  TRACK 186 AUDIO
    TITLE "LR_black_phrase_S06_186"
    INDEX 01 04:16:32
  TRACK 187 AUDIO
    TITLE "LR_black_phrase_S06_187"
    INDEX 01 04:19:24
  TRACK 188 AUDIO
    TITLE "LR_black_phrase_S06_188"
    INDEX 01 04:19:60
  TRACK 189 AUDIO
    TITLE "LR_black_phrase_S06_189"
    INDEX 01 04:22:23
  TRACK 190 AUDIO
    TITLE "LR_black_phrase_S06_190"
    INDEX 01 04:22:42
  TRACK 191 AUDIO
    TITLE "LR_black_phrase_S06_191"
    INDEX 01 04:25:05
  TRACK 192 AUDIO
    TITLE "LR_black_phrase_S06_192"
    INDEX 01 04:25:74
  TRACK 193 AUDIO
    TITLE "LR_black_phrase_S06_193"
    INDEX 01 04:27:26
  TRACK 194 AUDIO
    TITLE "LR_black_phrase_S06_194"
    INDEX 01 04:27:61
  TRACK 195 AUDIO
    TITLE "LR_black_phrase_S06_195"
    INDEX 01 04:29:13
  TRACK 196 AUDIO
    TITLE "LR_black_phrase_S06_196"
    INDEX 01 04:30:12
  TRACK 197 AUDIO
    TITLE "LR_black_phrase_S06_197"
    INDEX 01 04:32:43
  TRACK 198 AUDIO
    TITLE "LR_black_phrase_S06_198"
    INDEX 01 04:33:03
  TRACK 199 AUDIO
    TITLE "LR_black_phrase_S06_199"
    INDEX 01 04:35:41
  TRACK 200 AUDIO
    TITLE "LR_black_phrase_S06_200"
    INDEX 01 04:35:59
  TRACK 201 AUDIO
    TITLE "LR_black_phrase_S06_201"
    INDEX 01 04:38:24
